<svg width="94" height="7" viewBox="0 0 94 7" fill="none" xmlns="http://www.w3.org/2000/svg">
<path d="M1 4.3L60.6 4.7C60.7 5 61 5.1 61.3 5.1C61.6 5.1 61.9 4.9 62 4.7H67.8C68 4.7 68.3 4.7 68.5 4.7C68.6 5.3 68.9 5.7 69.2 5.7C69.5 5.7 69.7 5.3 69.9 4.7C70.4 4.7 70.9 4.7 71.5 4.7C71.7 5.4 72 5.8 72.4 5.8C72.8 5.8 73.1 5.4 73.3 4.7C73.7 4.7 74.2 4.7 74.6 4.7C74.8 5.4 75.1 5.9 75.5 5.9C75.9 5.9 76.2 5.4 76.4 4.7C76.8 4.7 77.2 4.7 77.7 4.8C77.9 5.5 78.2 6 78.5 6C78.8 6 79.1 5.6 79.3 4.9C79.7 4.9 80.2 4.9 80.6 5C80.8 5.7 81.1 6.2 81.4 6.2C81.7 6.2 82 5.8 82.2 5.1C82.7 5.1 83.1 5.2 83.5 5.2C83.6 6.1 83.9 6.6 84.2 6.6C84.5 6.6 84.8 6.2 85 5.6C85.4 5.6 85.8 5.7 86.2 5.7C86.4 6.3 86.7 6.6 86.9 6.6C87.2 6.6 87.4 6.3 87.6 5.8C88.1 5.8 88.6 5.9 89 5.9C89.2 6.5 89.4 6.9 89.7 6.9C90 6.9 90.2 6.6 90.4 6.1C91.1 6.2 91.6 6.2 92 6.3C92.2 6.7 92.4 7 92.6 7C93.2 7 93.6 5.6 93.6 3.9C93.6 2.2 93.2 0.8 92.6 0.8C92.4 0.8 92.2 1 92 1.4C91.6 1.5 91 1.5 90.4 1.6C90.2 1.1 90 0.8 89.7 0.8C89.4 0.8 89.2 1.1 89 1.7C88.5 1.7 88 1.8 87.5 1.8C87.3 1.4 87.1 1.1 86.8 1.1C86.5 1.1 86.3 1.4 86.1 1.9C85.7 1.9 85.2 1.9 84.8 2C84.6 1.5 84.4 1.2 84.1 1.2C83.8 1.2 83.5 1.5 83.4 2.1C82.9 2.1 82.4 2.1 81.9 2.1C81.7 1.6 81.5 1.3 81.2 1.3C80.9 1.3 80.6 1.6 80.4 2.2C79.9 2.2 79.4 2.2 78.9 2.2C78.7 1.7 78.5 1.4 78.2 1.4C77.9 1.4 77.7 1.7 77.5 2.3C77 2.3 76.5 2.3 76 2.3C75.8 1.8 75.5 1.5 75.3 1.5C75 1.5 74.7 1.8 74.5 2.4C74 2.4 73.5 2.4 73 2.4C72.8 2 72.6 1.7 72.3 1.7C72 1.7 71.7 2 71.6 2.4C70.9 2.4 70.4 2.4 69.8 2.4C69.7 1.9 69.4 1.6 69.2 1.6C69 1.6 68.7 1.9 68.6 2.4C68.1 2.4 67.8 2.4 67.8 2.4L1 2.4C0.5 2.4 0 2.8 0 3.4C0.1 3.9 0.5 4.3 1 4.3Z" fill="black"/>
</svg>
