<svg width="90" height="5" viewBox="0 0 90 5" fill="none" xmlns="http://www.w3.org/2000/svg">
<path d="M0.0289917 3.99452C0.128992 3.49452 0.328998 2.49452 1.129 1.59452C1.729 0.794518 2.42899 0.394518 2.82899 0.0945179C2.82899 0.0945179 5.32899 -0.405482 7.42899 0.894518C7.42899 0.894518 9.029 1.49452 9.729 0.994518C9.729 0.994518 10.929 0.194517 12.329 0.994518C12.329 0.994518 13.429 1.49452 14.329 1.29452C14.329 1.29452 16.029 0.794518 16.829 1.39452C16.829 1.39452 18.529 1.59452 18.829 1.29452C18.829 1.29452 21.429 0.594517 21.929 0.994518C29.529 1.19452 37.129 1.49452 44.729 1.69452L88.429 2.29452C88.429 2.29452 89.629 2.39452 89.629 3.19452C89.629 3.99452 88.629 4.09452 88.629 4.09452L44.829 4.09452C37.529 4.09452 30.229 4.09452 22.929 4.09452C22.929 4.09452 22.329 4.69452 20.529 4.69452C18.729 4.69452 15.129 4.59452 15.129 4.59452C14.729 4.69452 14.229 4.69452 13.729 4.69452C13.229 4.69452 12.829 4.59452 12.529 4.59452L8.129 4.49452C7.929 4.59452 7.529 4.59452 7.229 4.59452C6.829 4.59452 6.429 4.49452 6.129 4.39452C6.129 4.39452 -0.271008 4.89452 0.0289917 3.99452Z" fill="black"/>
</svg>
