<svg width="256" height="283" viewBox="0 0 256 283" fill="none" xmlns="http://www.w3.org/2000/svg">
<path d="M239.973 139.203C239.973 124.669 228.191 112.887 213.657 112.887C212.722 112.887 211.8 112.937 210.891 113.032L247.036 6.427H93.4316L129.526 112.94C128.997 112.908 128.465 112.887 127.927 112.887C113.393 112.887 101.611 124.669 101.611 139.203C101.611 150.951 109.31 160.897 119.937 164.281C114.324 174.003 107.262 182.759 99.2436 190.323C88.3406 200.609 75.8626 208.408 62.3676 213.214C46.2996 204.96 38.7116 186.602 45.5586 170.507C46.3316 168.69 47.1206 166.847 47.8756 165.013C59.5156 162.296 68.1896 151.86 68.1896 139.392C68.1896 124.858 56.4076 113.076 41.8736 113.076C27.3386 113.076 15.5566 124.858 15.5566 139.392C15.5566 148.305 19.9916 156.176 26.7696 160.937C20.2556 175.768 10.6816 191.288 7.69858 209.276C4.12358 230.835 7.68758 253.719 26.3326 266.642C69.7566 296.738 116.893 247.985 166.592 235.729C184.603 231.287 204.374 232.003 220.243 222.812C232.16 215.91 240.016 204.472 242.246 191.63C244.448 178.944 241.237 166.313 233.853 156.071C237.672 151.503 239.973 145.623 239.973 139.203ZM154.241 139.296C154.241 139.265 154.244 139.234 154.244 139.203C154.244 129.659 149.162 121.301 141.558 116.688L170.286 58.597L199.064 117.304C191.997 122.022 187.34 130.068 187.34 139.203C187.34 139.395 187.351 139.584 187.355 139.775L154.241 139.296Z" fill="#FF7400"/>
<path d="M246.399 139.203C246.399 123.218 234.882 109.88 219.711 107.031L256 0H84.466L120.81 107.248C106.167 110.507 95.183 123.593 95.183 139.203C95.183 150.926 101.378 161.223 110.663 167.009C106.197 173.662 100.901 179.923 94.832 185.648C85.208 194.728 74.485 201.614 62.925 206.144C51.282 198.83 46.36 185.038 51.472 173.022L51.872 172.082C52.122 171.494 52.373 170.904 52.623 170.314C65.411 165.855 74.616 153.682 74.616 139.392C74.616 121.337 59.927 106.649 41.872 106.649C23.817 106.649 9.12904 121.337 9.12904 139.392C9.12904 148.505 12.874 156.757 18.902 162.699C17.809 165.029 16.66 167.397 15.479 169.823C9.96704 181.144 3.72004 193.976 1.35704 208.225C-3.33596 236.524 4.23304 259.146 22.67 271.924C33.858 279.678 45.219 282.728 56.652 282.727C78.181 282.726 99.958 271.911 121.258 261.331C136.599 253.712 152.461 245.833 168.13 241.969C173.96 240.531 179.959 239.666 186.31 238.75C198.904 236.933 211.928 235.055 223.464 228.374C236.835 220.629 245.989 207.637 248.577 192.73C250.799 179.933 248.124 167.117 241.602 156.247C244.643 151.279 246.399 145.443 246.399 139.203ZM233.545 139.203C233.545 150.17 224.623 159.093 213.655 159.093C202.689 159.093 193.766 150.17 193.766 139.203C193.766 128.236 202.689 119.314 213.655 119.314C224.623 119.314 233.545 128.236 233.545 139.203ZM238.069 12.854L206.024 107.367C204.635 107.7 203.281 108.12 201.966 108.625L170.31 44.047L138.562 108.243C137.19 107.77 135.778 107.381 134.33 107.093L102.395 12.854H238.069ZM127.926 119.314C138.893 119.314 147.815 128.236 147.815 139.203C147.815 150.17 138.893 159.093 127.926 159.093C116.96 159.093 108.037 150.17 108.037 139.203C108.037 128.236 116.96 119.314 127.926 119.314ZM41.872 119.503C52.84 119.503 61.762 128.425 61.762 139.392C61.762 150.359 52.84 159.282 41.872 159.282C30.906 159.282 21.983 150.359 21.983 139.392C21.983 128.425 30.906 119.503 41.872 119.503ZM235.912 190.531C233.977 201.679 227.091 211.418 217.021 217.25C207.634 222.687 196.385 224.31 184.475 226.027C178.095 226.947 171.497 227.899 165.052 229.489C148.01 233.691 131.503 241.89 115.54 249.819C83.595 265.686 56.006 279.388 29.993 261.359C10.938 248.153 11.818 223.718 14.038 210.328C16.095 197.923 21.657 186.498 27.036 175.449C27.967 173.537 28.871 171.664 29.758 169.803C32.426 170.87 35.263 171.597 38.22 171.927C32.745 189.998 41.356 209.646 59.429 218.931L61.902 220.202L64.522 219.269C78.81 214.181 91.975 206.015 103.653 194.998C111.202 187.877 117.689 179.998 123.023 171.579C124.623 171.82 126.26 171.947 127.926 171.947C145.981 171.947 160.67 157.259 160.67 139.203C160.67 129.493 156.417 120.761 149.681 114.759L170.259 73.147L191.046 115.552C184.809 121.518 180.912 129.911 180.912 139.203C180.912 157.259 195.6 171.947 213.655 171.947C220.592 171.947 227.027 169.773 232.327 166.079C236.007 173.612 237.378 182.088 235.912 190.531Z" fill="#FAFAFA"/>
</svg>
