<svg width="97" height="64" viewBox="0 0 97 64" fill="none" xmlns="http://www.w3.org/2000/svg">
<path fill-rule="evenodd" clip-rule="evenodd" d="M96.362 61.369L96.232 60.992C95.473 58.796 94.707 56.597 93.941 54.4C93.327 52.64 92.713 50.88 92.103 49.12C91.085 46.185 90.063 43.245 89.04 40.307L88.445 38.598V30.836C88.445 30.615 88.342 30.407 88.168 30.273C87.993 30.138 87.765 30.095 87.553 30.15C86.518 30.428 85.379 30.563 84.073 30.563C80.908 30.563 77.368 29.767 73.62 28.923C69.65 28.029 65.545 27.106 61.64 27.106C55.554 27.106 51.183 29.362 47.989 34.169C44.795 29.361 40.424 27.106 34.338 27.106C30.433 27.106 26.327 28.03 22.358 28.923C18.61 29.766 15.07 30.563 11.905 30.563C10.598 30.563 9.46 30.428 8.425 30.15C8.211 30.093 7.985 30.138 7.81 30.273C7.635 30.407 7.533 30.615 7.533 30.836V39.673C6.859 41.615 6.185 43.559 5.509 45.501L4.249 49.119C2.873 53.076 1.496 57.036 0.13 60.992L0 61.369H43.469C44.035 62.467 45.783 63.275 47.867 63.275C49.951 63.275 51.699 62.466 52.265 61.369H96.362ZM52.081 59.557C51.884 59.297 51.607 59.065 51.285 58.858C61.167 54.21 73.333 54.098 85.598 58.481C73.378 56.435 61.456 55.495 52.081 59.557ZM91.033 59.168C76.444 52.544 61.552 52.115 49.858 57.979C49.511 57.699 49.167 57.416 48.825 57.135C61.188 50.782 74.174 50.718 87.434 56.977C87.44 56.979 87.447 56.979 87.453 56.981C87.498 57.001 87.545 57.006 87.593 57.016C87.638 57.026 87.681 57.041 87.725 57.041C87.73 57.041 87.734 57.044 87.738 57.044C87.771 57.044 87.802 57.029 87.836 57.024C87.89 57.017 87.942 57.013 87.993 56.994C87.998 56.991 88.004 56.992 88.01 56.99C88.081 56.961 88.145 56.919 88.2 56.87C88.213 56.859 88.221 56.846 88.232 56.834C88.283 56.785 88.324 56.729 88.357 56.666C88.363 56.655 88.374 56.648 88.378 56.638C88.382 56.628 88.382 56.616 88.387 56.604C88.413 56.54 88.43 56.472 88.437 56.401C88.439 56.385 88.444 56.37 88.444 56.354C88.444 56.348 88.447 56.342 88.447 56.336V49.783C89.308 52.911 90.17 56.04 91.033 59.168ZM51.19 54.455C55.337 51.435 60.341 49.883 66.145 49.883C71.201 49.883 76.167 51.099 80.111 52.676C70.242 49.815 60.556 50.419 51.19 54.455ZM61.639 28.524C65.387 28.524 69.414 29.43 73.309 30.307C77.135 31.168 80.749 31.981 84.073 31.981C85.145 31.981 86.121 31.897 87.028 31.724V54.802C83.123 51.873 74.718 48.465 66.145 48.465C59.404 48.465 53.462 50.553 48.823 54.502V35.711C48.823 35.658 48.795 35.613 48.783 35.563C51.732 30.77 55.831 28.524 61.639 28.524ZM8.947 31.724C9.855 31.897 10.831 31.981 11.903 31.981C15.226 31.981 18.841 31.168 22.667 30.307C26.562 29.43 30.589 28.524 34.337 28.524C40.145 28.524 44.244 30.77 47.193 35.563C47.181 35.614 47.153 35.659 47.153 35.711V54.502C42.513 50.553 36.572 48.465 29.831 48.465C21.258 48.465 12.853 51.873 8.947 54.802V31.724V31.724ZM45.337 54.86C35.743 50.454 26.067 49.706 16.013 52.618C19.933 51.07 24.837 49.884 29.83 49.884C35.892 49.883 41.087 51.569 45.337 54.86ZM7.53 49.782V56.337C7.53 56.342 7.533 56.347 7.533 56.353C7.533 56.371 7.539 56.389 7.541 56.408C7.548 56.476 7.563 56.542 7.59 56.604C7.594 56.614 7.592 56.626 7.598 56.638C7.603 56.65 7.614 56.657 7.62 56.668C7.652 56.729 7.692 56.783 7.741 56.832C7.754 56.844 7.762 56.859 7.776 56.87C7.832 56.919 7.895 56.961 7.966 56.99C7.971 56.992 7.977 56.991 7.982 56.993C8.032 57.013 8.084 57.015 8.136 57.023C8.17 57.029 8.203 57.044 8.238 57.044C8.242 57.044 8.246 57.041 8.251 57.041C8.293 57.041 8.333 57.025 8.375 57.018C8.426 57.007 8.476 57.001 8.522 56.981C8.528 56.979 8.534 56.979 8.54 56.977C21.939 50.653 34.526 50.751 47.003 57.258C46.67 57.531 46.333 57.806 45.997 58.076C34.434 52.207 19.998 52.681 5.128 59.412C5.039 59.43 4.95 59.445 4.862 59.461C5.751 56.235 6.641 53.008 7.53 49.782ZM12.057 58.209C23.84 54.279 35.068 54.485 44.412 58.878C44.134 59.061 43.896 59.263 43.713 59.484C34.797 55.696 23.608 56.373 12.057 58.209Z" fill="black"/>
<path fill-rule="evenodd" clip-rule="evenodd" d="M65.877 20.814L66.742 16.631L69.978 15.233L66.816 14.088L65.759 9.80896L64.893 13.992L61.658 15.389L64.82 16.534L65.877 20.814Z" fill="black"/>
<path fill-rule="evenodd" clip-rule="evenodd" d="M33.608 13.1951L34.934 9.87706L37.328 8.13206L34.82 6.37806L33.501 3.21106L32.175 6.52906L29.781 8.27406L32.288 10.0271L33.608 13.1951Z" fill="black"/>
<path fill-rule="evenodd" clip-rule="evenodd" d="M49.109 27.161L50.61 23.905L53.073 21.768L50.61 19.783L48.994 16.526L47.493 19.783L45.032 21.919L47.493 23.905L49.109 27.161Z" fill="black"/>
<path fill-rule="evenodd" clip-rule="evenodd" d="M26.1831 24.909L26.7221 22.303L28.7381 21.433L26.7681 20.719L26.1101 18.054L25.5711 20.659L23.5551 21.53L25.5251 22.242L26.1831 24.909Z" fill="black"/>
<path fill-rule="evenodd" clip-rule="evenodd" d="M54.3769 8.123L55.0159 5.036L57.4049 4.004L55.0699 3.159L54.2899 0L53.6509 3.088L51.2629 4.119L53.5969 4.965L54.3769 8.123Z" fill="black"/>
</svg>
