<svg width="80" height="80" viewBox="0 0 80 80" fill="none" xmlns="http://www.w3.org/2000/svg">
<path d="M1 2H15.765V5.625H6.916C6.363 5.625 5.916 6.073 5.916 6.625V79C5.916 79.552 6.363 80 6.916 80H73.083C73.636 80 74.083 79.552 74.083 79V6.625C74.083 6.073 73.636 5.625 73.083 5.625H64.234V2H79C79.553 2 80 1.552 80 1C80 0.448 79.553 0 79 0H1C0.447 0 0 0.448 0 1C0 1.552 0.447 2 1 2ZM72.083 7.625V78H7.916V7.625H15.765V11.454C13.761 11.911 12.257 13.7 12.257 15.841C12.257 18.326 14.279 20.348 16.765 20.348C19.251 20.348 21.273 18.326 21.273 15.841C21.273 13.7 19.769 11.911 17.765 11.454V7.625H62.235V11.454C60.231 11.911 58.728 13.7 58.728 15.841C58.728 18.326 60.749 20.348 63.235 20.348C65.721 20.348 67.743 18.326 67.743 15.841C67.743 13.7 66.239 11.911 64.235 11.454V7.625H72.083ZM16.765 16.841C17.318 16.841 17.765 16.393 17.765 15.841V13.545C18.651 13.932 19.273 14.815 19.273 15.841C19.273 17.223 18.148 18.348 16.765 18.348C15.382 18.348 14.257 17.223 14.257 15.841C14.257 14.814 14.879 13.932 15.765 13.545V15.841C15.765 16.393 16.212 16.841 16.765 16.841ZM63.234 16.841C63.787 16.841 64.234 16.393 64.234 15.841V13.545C65.12 13.932 65.742 14.815 65.742 15.841C65.742 17.223 64.617 18.348 63.234 18.348C61.852 18.348 60.727 17.223 60.727 15.841C60.727 14.815 61.349 13.932 62.234 13.545V15.841C62.234 16.393 62.682 16.841 63.234 16.841ZM62.234 5.625H17.764V2H62.234V5.625Z" fill="white"/>
<path d="M23.771 50.811C23.499 49.78 23.361 48.719 23.361 47.655C23.361 47.103 22.914 46.655 22.361 46.655C21.808 46.655 21.361 47.103 21.361 47.655C21.361 48.891 21.521 50.125 21.838 51.322C21.956 51.77 22.361 52.067 22.804 52.067C22.889 52.067 22.975 52.056 23.06 52.034C23.594 51.892 23.912 51.345 23.771 50.811Z" fill="white"/>
<path d="M40.951 62.307C33.842 62.307 27.471 58.774 24.72 53.306C24.472 52.813 23.871 52.614 23.377 52.862C22.884 53.111 22.685 53.712 22.933 54.205C26.021 60.342 33.093 64.308 40.952 64.308C41.505 64.308 41.952 63.86 41.952 63.308C41.952 62.756 41.504 62.307 40.951 62.307Z" fill="white"/>
<path d="M62.719 25.105C61.683 24.085 60.014 24.1 58.998 25.13L50.912 33.289H35.716C35.373 30.733 33.201 28.747 30.553 28.747C27.905 28.747 25.732 30.732 25.39 33.289H20.834C18.882 33.289 17.293 34.877 17.293 36.83C17.293 38.15 18.028 39.29 19.101 39.899C17.902 42.449 17.293 45.156 17.293 47.963C17.293 52.79 19.139 57.234 22.221 60.762L20.306 65.902C19.665 67.622 20.543 69.543 22.264 70.184C22.646 70.326 23.036 70.393 23.422 70.393C24.773 70.393 26.047 69.564 26.546 68.226L27.649 65.267C31.285 67.434 35.639 68.7 40.316 68.7C44.993 68.7 49.347 67.434 52.983 65.267L54.086 68.226C54.397 69.059 55.013 69.722 55.821 70.092C56.262 70.294 56.732 70.395 57.204 70.395C57.597 70.395 57.99 70.325 58.369 70.184C60.089 69.543 60.967 67.622 60.326 65.902L58.411 60.761C61.493 57.233 63.339 52.79 63.339 47.963C63.339 45.155 62.728 42.448 61.53 39.899C62.604 39.29 63.339 38.15 63.339 36.83C63.339 34.877 61.75 33.289 59.798 33.289H58.368L62.745 28.828C63.764 27.795 63.752 26.125 62.719 25.105ZM30.553 30.748C32.098 30.748 33.389 31.839 33.708 33.29H27.399C27.716 31.839 29.008 30.748 30.553 30.748ZM24.671 67.529C24.415 68.216 23.65 68.566 22.962 68.311C22.274 68.055 21.924 67.288 22.181 66.601L23.763 62.355C24.444 62.99 25.169 63.587 25.935 64.14L24.671 67.529ZM57.671 68.311C57.339 68.435 56.976 68.423 56.653 68.274C56.33 68.127 56.084 67.862 55.961 67.529L54.698 64.14C55.464 63.587 56.188 62.99 56.87 62.355L58.452 66.601C58.708 67.288 58.357 68.055 57.671 68.311ZM40.315 66.701C28.722 66.701 19.292 58.295 19.292 47.964C19.292 45.315 19.905 42.765 21.099 40.372H59.533C60.726 42.764 61.339 45.315 61.339 47.964C61.339 58.295 51.908 66.701 40.315 66.701ZM61.339 36.831C61.339 37.681 60.648 38.372 59.798 38.372H20.833C19.983 38.372 19.292 37.681 19.292 36.831C19.292 35.981 19.983 35.29 20.833 35.29H59.798C60.647 35.29 61.339 35.981 61.339 36.831ZM61.319 27.426L55.566 33.289H53.727L60.419 26.536C60.665 26.286 61.065 26.285 61.314 26.529C61.562 26.775 61.565 27.176 61.319 27.426Z" fill="white"/>
<path d="M22.619 28.847C24.548 28.847 26.117 27.277 26.117 25.348C26.117 23.419 24.548 21.849 22.619 21.849C20.689 21.849 19.12 23.418 19.12 25.348C19.12 27.278 20.689 28.847 22.619 28.847ZM22.619 23.85C23.445 23.85 24.117 24.522 24.117 25.349C24.117 26.176 23.445 26.848 22.619 26.848C21.793 26.848 21.12 26.176 21.12 25.349C21.12 24.522 21.793 23.85 22.619 23.85Z" fill="white"/>
<path d="M39.106 27.883C41.414 27.883 43.291 26.006 43.291 23.699C43.291 21.391 41.414 19.514 39.106 19.514C36.798 19.514 34.921 21.391 34.921 23.699C34.922 26.006 36.799 27.883 39.106 27.883ZM39.106 21.514C40.31 21.514 41.291 22.494 41.291 23.699C41.291 24.903 40.311 25.883 39.106 25.883C37.901 25.883 36.921 24.903 36.921 23.699C36.922 22.494 37.902 21.514 39.106 21.514Z" fill="white"/>
</svg>
