<svg width="60" height="63" viewBox="0 0 60 63" fill="none" xmlns="http://www.w3.org/2000/svg">
<path d="M42.7744 53.0154C42.7744 52.9154 42.7744 52.7154 42.6744 52.6154C42.2744 51.2154 40.2744 50.2154 36.8744 48.5154L6.47441 17.7154C6.07441 17.3154 5.47441 17.3154 5.07441 17.7154C4.67441 18.1154 4.67441 18.7154 5.07441 19.1154L35.5744 49.9154C36.4744 52.3154 38.0744 55.8154 39.9744 55.9154C41.2744 58.0154 44.4744 62.4154 47.0744 62.4154C47.1744 62.4154 47.2744 62.4154 47.2744 62.4154C48.1744 62.3154 49.3744 61.1154 49.4744 60.2154C49.7744 57.5154 44.9744 54.3154 42.7744 53.0154ZM40.7744 53.1154C40.6744 53.6154 40.3744 53.8154 40.0744 53.8154C39.6744 53.8154 39.0744 52.7154 38.3744 51.4154C39.5744 52.1154 40.7744 52.7154 40.7744 53.1154ZM46.9744 60.4154C45.9744 60.4154 43.5744 57.7154 41.7744 55.0154C41.8744 54.9154 41.8744 54.9154 41.9744 54.8154C44.7744 56.5154 47.4744 58.8154 47.4744 59.9154C47.3744 60.0154 47.1744 60.3154 46.9744 60.4154Z" fill="black"/>
<path d="M32.1744 32.0154C32.3744 32.0154 32.5744 31.9154 32.7744 31.8154C33.2744 31.5154 33.3744 30.9154 33.0744 30.4154C32.7744 29.9154 32.1744 29.8154 31.6744 30.1154C31.1744 30.4154 31.0744 31.0154 31.3744 31.5154C31.5744 31.9154 31.8744 32.0154 32.1744 32.0154Z" fill="black"/>
<path d="M37.3745 39.4155C37.5745 39.4155 37.7745 39.3155 37.9745 39.2155C38.3745 38.9155 38.4745 38.2155 38.1745 37.8155C37.8745 37.4155 37.1745 37.3155 36.7745 37.6155C36.3745 37.9155 36.2745 38.6155 36.5745 39.0155C36.7745 39.3155 37.0745 39.4155 37.3745 39.4155Z" fill="black"/>
<path d="M21.9744 17.2154C22.1744 17.2154 22.3744 17.1154 22.5744 17.0154C22.9744 16.7154 23.0744 16.0154 22.7744 15.6154C22.4744 15.2154 21.7744 15.1154 21.3744 15.4154C20.9744 15.7154 20.8744 16.4154 21.1744 16.8154C21.3744 17.0154 21.6744 17.2154 21.9744 17.2154Z" fill="black"/>
<path d="M27.1744 24.6154C27.3744 24.6154 27.5744 24.5154 27.7744 24.4154C28.2744 24.1154 28.3744 23.5154 28.0744 23.0154C27.7744 22.5154 27.1744 22.4154 26.6744 22.7154C26.1744 23.0154 26.0744 23.6154 26.3744 24.1154C26.4744 24.4154 26.8744 24.6154 27.1744 24.6154Z" fill="black"/>
<path d="M34.2744 19.4154C34.4744 19.7154 34.7744 19.8154 35.0744 19.8154C35.2744 19.8154 35.4744 19.7154 35.6744 19.6154C36.1744 19.3154 36.2744 18.6154 35.8744 18.2154C35.5744 17.8154 34.9744 17.7154 34.4744 18.0154C34.0744 18.3154 33.9744 19.0154 34.2744 19.4154Z" fill="black"/>
<path d="M33.2744 11.2154C33.3744 11.2154 33.3744 11.2154 33.4744 11.2154C33.9744 11.2154 34.3744 10.9154 34.4744 10.4154C34.5744 9.91545 34.2744 9.31545 33.7744 9.21545C33.2744 9.11545 32.6744 9.41545 32.5744 9.91545C32.3744 10.6154 32.7744 11.1154 33.2744 11.2154Z" fill="black"/>
<path d="M41.3744 26.2154C41.6744 26.2154 41.9744 26.1154 42.1744 25.8154C42.5744 25.4154 42.4744 24.8154 42.0744 24.4154C41.6744 24.0154 41.0744 24.1154 40.6744 24.5154C40.2744 24.9154 40.3744 25.6154 40.7744 25.9154C40.9744 26.2154 41.1744 26.2154 41.3744 26.2154Z" fill="black"/>
<path d="M38.3745 3.91538C38.5745 3.91538 38.7745 3.81538 38.9745 3.71538C39.3745 3.41538 39.4745 2.71538 39.1745 2.31538C38.8745 1.81538 38.1745 1.81538 37.7745 2.11538C37.3745 2.41538 37.2745 3.11538 37.5745 3.51538C37.7745 3.81538 38.0745 3.91538 38.3745 3.91538Z" fill="black"/>
<path d="M46.7745 2.01543C46.7745 2.01543 46.8744 2.01543 46.9744 2.01543C47.4744 2.01543 47.8744 1.61543 47.9744 1.11543C48.0744 0.615426 47.6744 0.0154261 47.1744 0.0154261C46.6744 -0.0845739 46.0744 0.315427 46.0744 0.815427C45.8744 1.41543 46.2745 1.91543 46.7745 2.01543Z" fill="black"/>
<path d="M47.5745 30.3155C47.1745 30.7155 47.2745 31.4155 47.6745 31.7155C47.8745 31.9155 48.0745 31.9155 48.2745 31.9155C48.5745 31.9155 48.8745 31.8155 49.0745 31.5155C49.3745 31.1155 49.3745 30.4155 48.9745 30.1155C48.5745 29.8155 47.9745 29.9155 47.5745 30.3155Z" fill="black"/>
<path d="M16.2744 10.2155C16.4744 10.2155 16.7744 10.1155 16.9744 9.91546C17.3744 9.51546 17.3744 8.91545 16.9744 8.51545C16.5744 8.11545 15.9744 8.11545 15.5744 8.51545C15.1744 8.91545 15.1744 9.51546 15.5744 9.91546C15.7744 10.1155 15.9744 10.2155 16.2744 10.2155Z" fill="black"/>
<path d="M42.5744 44.5154C42.1744 44.9154 42.1744 45.5154 42.5744 45.9154C42.7744 46.1154 42.9744 46.2154 43.2744 46.2154C43.5744 46.2154 43.7744 46.1154 43.9744 45.9154C44.3744 45.5154 44.3744 44.9154 43.9744 44.5154C43.5744 44.1154 42.8744 44.2154 42.5744 44.5154Z" fill="black"/>
<path d="M55.2744 6.0154C55.6744 5.7154 55.7744 5.0154 55.4744 4.6154C55.1744 4.2154 54.4744 4.1154 54.0744 4.4154C53.6744 4.7154 53.5744 5.4154 53.8744 5.8154C54.0744 6.1154 54.3744 6.2154 54.6744 6.2154C54.8744 6.2154 55.0744 6.1154 55.2744 6.0154Z" fill="black"/>
<path d="M50.9744 48.6155C50.3744 48.6155 49.9744 49.0155 49.8744 49.5155C49.8744 50.0155 50.2744 50.5155 50.7744 50.6155C50.7744 50.6155 50.7744 50.6155 50.8744 50.6155C51.3744 50.6155 51.8744 50.2155 51.8744 49.7155C51.9744 49.1155 51.4744 48.6155 50.9744 48.6155Z" fill="black"/>
<path d="M8.77446 4.71539C8.87446 4.71539 8.97446 4.81539 9.17446 4.81539C9.57446 4.81539 9.97446 4.61539 10.0745 4.21539C10.2745 3.71539 10.0745 3.11539 9.47446 2.91539C8.97446 2.71539 8.37446 2.91539 8.17446 3.41539C7.97446 4.01539 8.27446 4.51539 8.77446 4.71539Z" fill="black"/>
<path d="M50.8745 19.5154C50.3745 19.7154 50.0745 20.3154 50.3745 20.8154C50.5745 21.2154 50.8745 21.4154 51.2745 21.4154C51.3745 21.4154 51.4745 21.4154 51.6745 21.3154C52.1745 21.1154 52.4745 20.5154 52.1745 20.0154C51.9745 19.6154 51.3745 19.3154 50.8745 19.5154Z" fill="black"/>
<path d="M54.3744 36.2155C53.9744 36.6155 53.9744 37.2155 54.2744 37.6155C54.4744 37.8155 54.7744 37.9155 54.9744 37.9155C55.1744 37.9155 55.4744 37.8155 55.6744 37.6155C56.0744 37.2155 56.0744 36.6155 55.6744 36.2155C55.4744 35.9155 54.7744 35.9155 54.3744 36.2155Z" fill="black"/>
<path d="M57.6745 13.9155C57.7745 13.4155 57.4745 12.8155 56.8745 12.7155C56.3745 12.6155 55.7745 12.9155 55.6745 13.5155C55.5745 14.0155 55.8745 14.6155 56.4745 14.7155C56.5745 14.7155 56.5745 14.7155 56.6745 14.7155C57.1745 14.7155 57.5745 14.4155 57.6745 13.9155Z" fill="black"/>
<path d="M1.77443 6.01547C2.07443 5.51547 1.97443 4.91547 1.57443 4.61547C1.17443 4.31547 0.474434 4.41547 0.174434 4.81547C-0.125566 5.31547 -0.0255674 5.91547 0.374433 6.21547C0.574433 6.31547 0.774433 6.41547 0.974433 6.41547C1.27443 6.51547 1.57443 6.31547 1.77443 6.01547Z" fill="black"/>
<path d="M1.87441 15.0154C2.07441 15.0154 2.27441 14.9154 2.37441 14.8154C2.87441 14.5154 2.97442 13.9154 2.67442 13.4154C2.37442 12.9154 1.77441 12.8154 1.27441 13.1154C0.774414 13.4154 0.674414 14.0154 0.974414 14.5154C1.27441 14.8154 1.57441 15.0154 1.87441 15.0154Z" fill="black"/>
<path d="M58.3744 44.0154C57.8744 43.8154 57.2744 44.1154 57.0744 44.6154C56.8744 45.1154 57.0744 45.7154 57.6744 45.9154C57.7744 45.9154 57.8744 46.0154 58.0744 46.0154C58.4744 46.0154 58.8744 45.8154 58.9744 45.4154C59.1744 44.8154 58.8744 44.2154 58.3744 44.0154Z" fill="black"/>
<path d="M12.1744 44.1155H10.6744V42.6155C10.6744 42.1155 10.1744 41.6155 9.67444 41.6155C9.07444 41.6155 8.67444 42.1155 8.67444 42.6155V44.1155H7.17444C6.57444 44.1155 6.17444 44.6155 6.17444 45.1155C6.17444 45.6155 6.67444 46.1155 7.17444 46.1155H8.67444V47.6155C8.67444 48.1155 9.17444 48.6155 9.67444 48.6155C10.2744 48.6155 10.6744 48.1155 10.6744 47.6155V46.1155H12.1744C12.7744 46.1155 13.1744 45.6155 13.1744 45.1155C13.1744 44.5155 12.7744 44.1155 12.1744 44.1155Z" fill="black"/>
<path d="M42.4745 13.1155H43.9745V14.6155C43.9745 15.1155 44.4745 15.6155 44.9745 15.6155C45.5745 15.6155 45.9745 15.1155 45.9745 14.6155V13.1155H47.4745C48.0745 13.1155 48.4745 12.6155 48.4745 12.1155C48.4745 11.6155 47.9745 11.1155 47.4745 11.1155H45.9745V9.61548C45.9745 9.11548 45.4745 8.61548 44.9745 8.61548C44.3745 8.61548 43.9745 9.11548 43.9745 9.61548V11.1155H42.4745C41.8745 11.1155 41.4745 11.6155 41.4745 12.1155C41.4745 12.7155 41.8745 13.1155 42.4745 13.1155Z" fill="black"/>
<path d="M19.7744 53.8154C20.3267 53.8154 20.7744 53.3677 20.7744 52.8154C20.7744 52.2631 20.3267 51.8154 19.7744 51.8154C19.2221 51.8154 18.7744 52.2631 18.7744 52.8154C18.7744 53.3677 19.2221 53.8154 19.7744 53.8154Z" fill="black"/>
<path d="M3.27441 35.3154C3.8267 35.3154 4.27441 34.8677 4.27441 34.3154C4.27441 33.7631 3.8267 33.3154 3.27441 33.3154C2.72213 33.3154 2.27441 33.7631 2.27441 34.3154C2.27441 34.8677 2.72213 35.3154 3.27441 35.3154Z" fill="black"/>
<path d="M2.07446 55.2155C2.62675 55.2155 3.07446 54.7677 3.07446 54.2155C3.07446 53.6632 2.62675 53.2155 2.07446 53.2155C1.52218 53.2155 1.07446 53.6632 1.07446 54.2155C1.07446 54.7677 1.52218 55.2155 2.07446 55.2155Z" fill="black"/>
</svg>
