<svg width="79" height="86" viewBox="0 0 79 86" fill="none" xmlns="http://www.w3.org/2000/svg">
<path fill-rule="evenodd" clip-rule="evenodd" d="M50.7352 63.7684C53.7172 62.6534 55.4952 60.8804 56.1432 57.9724C59.5702 59.5734 62.5522 61.6224 65.2812 64.0354C70.9922 69.0874 75.3412 75.1444 78.4962 82.0814C78.9242 83.0224 78.8192 83.6604 78.1862 84.4624C77.5622 85.2524 76.9332 85.3814 76.0042 85.2404C67.4362 83.9454 61.0962 79.1624 56.1242 72.3844C54.1642 69.7114 52.5872 66.7564 50.7352 63.7684Z" fill="black"/>
<path fill-rule="evenodd" clip-rule="evenodd" d="M46.8862 52.9334C46.3992 53.4524 45.8912 53.9914 45.2932 54.6284C38.8872 49.4974 34.1062 43.4414 32.3342 35.3754C32.0342 34.0134 31.5402 32.8844 30.6282 31.8164C23.6022 23.5894 16.0062 15.9594 7.34323 9.44442C6.67023 8.93942 5.76323 8.61242 4.92223 8.48742C1.07023 7.91242 -0.289766 6.26942 0.0502345 2.41242C0.280234 -0.207581 0.893235 -0.64058 3.19723 0.85642C5.95623 2.64842 8.72923 4.54442 11.0662 6.83542C17.9452 13.5764 24.6382 20.5064 31.3452 27.4194C33.8862 30.0394 35.4212 33.2944 36.0742 36.8414C36.6882 40.1744 38.2002 42.9954 40.2862 45.5284C42.3542 48.0384 44.6082 50.3924 46.8862 52.9334Z" fill="black"/>
<path fill-rule="evenodd" clip-rule="evenodd" d="M49.8392 62.0255C49.3212 61.3265 48.7932 60.6144 48.3502 60.0174C49.7712 58.3424 51.1212 56.7515 52.4692 55.1635C54.9052 57.3385 53.8662 60.3115 49.8392 62.0255Z" fill="black"/>
<path fill-rule="evenodd" clip-rule="evenodd" d="M47.1623 58.5604C46.4143 57.7164 45.9533 57.1944 45.6763 56.8814C47.0613 55.3544 48.3913 53.8874 49.7363 52.4054C50.0143 52.6684 50.5003 53.1244 51.2203 53.8034C49.9053 55.3444 48.5983 56.8754 47.1623 58.5604Z" fill="black"/>
</svg>
